<svg width="25" height="36" viewBox="0 0 25 36" fill="none" xmlns="http://www.w3.org/2000/svg">
<g clip-path="url(#clip0_77_294)">
<path d="M4.8317 16.7831C4.78134 16.7453 4.72583 16.7133 4.66597 16.6884C4.37878 16.5685 4.0477 16.633 3.8265 16.8519L3.34806 17.3254C2.32339 18.3394 1.74683 19.7211 1.74683 21.1626V27.1175C1.74683 27.3308 1.83518 27.5346 1.99089 27.6804L5.75348 31.2039C6.54306 31.9433 6.99112 32.9767 6.99112 34.0584C6.99112 34.4844 7.33641 34.8297 7.76234 34.8297H20.1019C20.5278 34.8297 20.8731 34.4844 20.8731 34.0584V33.1464C20.8731 32.6865 21.0092 32.2368 21.2644 31.8541L23.0722 29.1424C23.6497 28.276 23.958 27.2581 23.958 26.2168V16.7831C23.958 15.5053 22.9221 14.4695 21.6443 14.4695H21.4657C20.8411 14.4695 20.2792 14.7377 19.8888 15.1652C19.6431 14.061 18.6578 13.2355 17.4797 13.2355C16.7034 13.2355 16.0109 13.5939 15.5585 14.1543C15.2755 12.9212 14.1713 12.0016 12.8524 12.0016C11.9802 12.0016 11.202 12.4037 10.693 13.0327V4.1351C10.693 2.51656 9.38088 1.20447 7.76234 1.20447C6.14379 1.20447 4.8317 2.51656 4.8317 4.1351V16.7831Z" fill="#008DFF" stroke="#008DFF" stroke-width="1.54244" stroke-linejoin="round"/>
<path fill-rule="evenodd" clip-rule="evenodd" d="M11.4641 19.2511H13.3151H15.4745V29.7397H13.3151V21.4105H11.4641V19.2511Z" fill="#008DFF"/>
</g>
<defs>
<clipPath id="clip0_77_294">
<rect width="25" height="36" fill="white"/>
</clipPath>
</defs>
</svg>
