<svg width="24" height="24" viewBox="0 0 24 24" fill="none" xmlns="http://www.w3.org/2000/svg">
<path fill-rule="evenodd" clip-rule="evenodd" d="M3.98005 2.79497C5.04961 2.25 6.44974 2.25 9.25 2.25H14.75C17.5503 2.25 18.9504 2.25 20.02 2.79497C20.9608 3.27433 21.7257 4.03924 22.205 4.98005C22.75 6.04961 22.75 7.44974 22.75 10.25V13.75C22.75 16.5503 22.75 17.9504 22.205 19.02C21.7257 19.9608 20.9608 20.7257 20.02 21.205C18.9504 21.75 17.5503 21.75 14.75 21.75H9.25C6.44974 21.75 5.04961 21.75 3.98005 21.205C3.03924 20.7257 2.27433 19.9608 1.79497 19.02C1.25 17.9504 1.25 16.5503 1.25 13.75V10.25C1.25 7.44974 1.25 6.04961 1.79497 4.98005C2.27433 4.03924 3.03924 3.27433 3.98005 2.79497ZM6.41603 7.37596C6.07138 7.1462 5.60573 7.23933 5.37596 7.58397C5.1462 7.92862 5.23933 8.39427 5.58397 8.62404L6.58397 9.2907L6.70034 9.36829L6.70034 9.3683C8.19864 10.3674 9.09026 10.9619 10.0527 11.2519C11.3227 11.6346 12.6773 11.6346 13.9473 11.2519C14.9097 10.9619 15.8014 10.3674 17.2996 9.3683L17.2997 9.36829L17.416 9.2907L18.416 8.62404C18.7607 8.39427 18.8538 7.92862 18.624 7.58397C18.3943 7.23933 17.9286 7.1462 17.584 7.37596L16.584 8.04263C14.9337 9.14281 14.2367 9.59812 13.5145 9.81569C12.5268 10.1133 11.4732 10.1133 10.4855 9.81569C9.76334 9.59812 9.0663 9.14281 7.41603 8.04263L7.41597 8.04259L6.41603 7.37596Z" fill="#9898A7"/>
</svg>
