<svg width="24" height="24" viewBox="0 0 24 24" fill="none" xmlns="http://www.w3.org/2000/svg">
<path fill-rule="evenodd" clip-rule="evenodd" d="M9.52171 10.2669C7.90746 8.91888 5.85918 8.1127 3.63035 8.1127L3 8.1127L3 9.96807L3.63035 9.96807C5.99982 9.96807 8.11781 11.091 9.52171 12.8544L9.52171 10.2669ZM9.52171 14.4307L3.00046 14.4307L3.00046 16.2861L11.1175 16.2861C11.2196 16.7886 11.2765 17.3086 11.2833 17.8412L11.2833 21.4L13.0624 21.4L13.0624 21.3988L13.0631 21.3988L13.0631 17.95C13.0631 17.9096 13.0628 17.8694 13.0624 17.8291L13.0624 16.2861L13.0635 16.2861L13.0635 15.3584L13.0635 12.2027C13.069 12.2105 13.0744 12.2183 13.0798 12.2262L13.0798 9.9574L14.8589 9.9574L14.8589 9.96928L21.4 9.96928L21.4 8.11391L13.2286 8.11391L13.2262 8.10203L13.0798 8.10203L13.0798 7.00004C13.0715 6.8726 13.0661 6.74433 13.0635 6.61532L13.0635 3L11.3008 3L11.3008 14.4412L9.52171 14.4412L9.52171 14.4307ZM14.8589 11.5881L14.8589 14.1612C16.4678 15.4918 18.5027 16.2865 20.7156 16.2865L21.3459 16.2865L21.3459 14.4311L20.7156 14.4311C18.3655 14.4311 16.2629 13.3266 14.8589 11.5881Z" fill="white"/>
</svg>
