<svg width="24" height="24" viewBox="0 0 24 24" fill="none" xmlns="http://www.w3.org/2000/svg">
<path d="M14.5094 20.9056C14.5198 20.402 14.5349 19.6585 14.5349 19C14.5349 18 13.8548 17.0818 13.8548 17.0818C16.1129 16.834 18.4919 15.5037 18.4919 11.5393C18.4919 10.383 18.0887 9.84616 17.4435 9.10284L17.4579 9.0525C17.5588 8.7032 17.8583 7.66631 17.3226 6.29474C16.4758 6.00567 14.5403 7.40972 14.5403 7.40972C13.7339 7.16195 12.8871 7.07936 12 7.07936C11.1532 7.07936 10.3065 7.16195 9.5 7.40972C9.5 7.40972 7.52419 6.04697 6.71774 6.29474C6.15323 7.74009 6.47581 8.81377 6.59677 9.10284C5.95161 9.84616 5.62903 10.383 5.62903 11.5393C5.62903 15.5037 7.92742 16.834 10.1855 17.0818C10.1855 17.0818 9.5 17.8624 9.5 18.9312V20.9082V22.4578C4.76861 21.3309 1.25 17.0764 1.25 12C1.25 6.06294 6.06294 1.25 12 1.25C17.9371 1.25 22.75 6.06294 22.75 12C22.75 17.073 19.2361 21.3252 14.5094 22.4555V20.9056Z" fill="white" fill-opacity="0.7"/>
</svg>
