<svg width="274" height="157" viewBox="0 0 274 157" fill="none" xmlns="http://www.w3.org/2000/svg">
<mask id="mask0_85_76" style="mask-type:alpha" maskUnits="userSpaceOnUse" x="0" y="0" width="256" height="157">
<rect width="256" height="157" fill="url(#paint0_linear_85_76)"/>
</mask>
<g mask="url(#mask0_85_76)">
<rect x="116.584" y="69.9504" width="17.099" height="17.099" rx="4.66336" fill="#52A44E" fill-opacity="0.3"/>
<rect x="117.361" y="70.7277" width="15.5445" height="15.5445" rx="3.88614" stroke="#62BE5E" stroke-opacity="0.3" stroke-width="1.55445"/>
<rect x="116.584" y="93.2673" width="17.099" height="17.099" rx="4.66336" fill="#52A44E" fill-opacity="0.3"/>
<rect x="117.361" y="94.0446" width="15.5445" height="15.5445" rx="3.88614" stroke="#62BE5E" stroke-opacity="0.3" stroke-width="1.55445"/>
<rect x="117.361" y="117.361" width="15.5445" height="15.5445" rx="3.88614" fill="#52A44E" stroke="#62BE5E" stroke-width="1.55445"/>
<rect x="117.361" y="140.678" width="15.5445" height="15.5445" rx="3.88614" fill="#171B21" stroke="#1E2229" stroke-width="1.55445"/>
<rect x="116.584" y="46.6337" width="17.099" height="17.099" rx="4.66336" fill="#52A44E" fill-opacity="0.6"/>
<rect x="117.361" y="47.4109" width="15.5445" height="15.5445" rx="3.88614" stroke="#62BE5E" stroke-opacity="0.3" stroke-width="1.55445"/>
<rect x="117.361" y="24.0941" width="15.5445" height="15.5445" rx="3.88614" fill="#52A44E" stroke="#62BE5E" stroke-width="1.55445"/>
<rect x="117.361" y="0.777227" width="15.5445" height="15.5445" rx="3.88614" fill="#52A44E" stroke="#62BE5E" stroke-width="1.55445"/>
<rect x="94.0443" y="70.7277" width="15.5445" height="15.5445" rx="3.88614" fill="#171B21" stroke="#1E2229" stroke-width="1.55445"/>
<rect x="94.0443" y="94.0446" width="15.5445" height="15.5445" rx="3.88614" fill="#171B21" stroke="#1E2229" stroke-width="1.55445"/>
<rect x="94.0443" y="117.361" width="15.5445" height="15.5445" rx="3.88614" fill="#52A44E" stroke="#62BE5E" stroke-width="1.55445"/>
<rect x="94.0443" y="140.678" width="15.5445" height="15.5445" rx="3.88614" fill="#52A44E" stroke="#62BE5E" stroke-width="1.55445"/>
<rect x="94.0443" y="47.4109" width="15.5445" height="15.5445" rx="3.88614" fill="#52A44E" stroke="#62BE5E" stroke-width="1.55445"/>
<rect x="94.0443" y="24.0941" width="15.5445" height="15.5445" rx="3.88614" fill="#52A44E" stroke="#62BE5E" stroke-width="1.55445"/>
<rect x="93.2671" width="17.099" height="17.099" rx="4.66336" fill="#52A44E" fill-opacity="0.6"/>
<rect x="94.0443" y="0.777227" width="15.5445" height="15.5445" rx="3.88614" stroke="#62BE5E" stroke-opacity="0.3" stroke-width="1.55445"/>
<rect x="70.7277" y="70.7277" width="15.5445" height="15.5445" rx="3.88614" fill="#171B21" stroke="#1E2229" stroke-width="1.55445"/>
<rect x="70.7277" y="94.0446" width="15.5445" height="15.5445" rx="3.88614" fill="#52A44E" stroke="#62BE5E" stroke-width="1.55445"/>
<rect x="70.7277" y="117.361" width="15.5445" height="15.5445" rx="3.88614" fill="#52A44E" stroke="#62BE5E" stroke-width="1.55445"/>
<rect x="69.9504" y="139.901" width="17.099" height="17.099" rx="4.66336" fill="#52A44E" fill-opacity="0.6"/>
<rect x="70.7277" y="140.678" width="15.5445" height="15.5445" rx="3.88614" stroke="#62BE5E" stroke-opacity="0.3" stroke-width="1.55445"/>
<rect x="70.7277" y="47.4109" width="15.5445" height="15.5445" rx="3.88614" fill="#171B21" stroke="#1E2229" stroke-width="1.55445"/>
<rect x="70.7277" y="24.0941" width="15.5445" height="15.5445" rx="3.88614" fill="#171B21" stroke="#1E2229" stroke-width="1.55445"/>
<rect x="70.7277" y="0.777227" width="15.5445" height="15.5445" rx="3.88614" fill="#52A44E" stroke="#62BE5E" stroke-width="1.55445"/>
<rect x="46.6335" y="69.9504" width="17.099" height="17.099" rx="4.66336" fill="#52A44E" fill-opacity="0.6"/>
<rect x="47.4108" y="70.7277" width="15.5445" height="15.5445" rx="3.88614" stroke="#62BE5E" stroke-opacity="0.3" stroke-width="1.55445"/>
<rect x="46.6335" y="93.2673" width="17.099" height="17.099" rx="4.66336" fill="#52A44E" fill-opacity="0.3"/>
<rect x="47.4108" y="94.0446" width="15.5445" height="15.5445" rx="3.88614" stroke="#62BE5E" stroke-opacity="0.3" stroke-width="1.55445"/>
<rect x="46.6335" y="116.584" width="17.099" height="17.099" rx="4.66336" fill="#52A44E" fill-opacity="0.6"/>
<rect x="47.4108" y="117.361" width="15.5445" height="15.5445" rx="3.88614" stroke="#62BE5E" stroke-opacity="0.3" stroke-width="1.55445"/>
<rect x="47.4108" y="140.678" width="15.5445" height="15.5445" rx="3.88614" fill="#52A44E" stroke="#62BE5E" stroke-width="1.55445"/>
<rect x="47.4108" y="47.4109" width="15.5445" height="15.5445" rx="3.88614" fill="#52A44E" stroke="#62BE5E" stroke-width="1.55445"/>
<rect x="47.4108" y="24.0941" width="15.5445" height="15.5445" rx="3.88614" fill="#171B21" stroke="#1E2229" stroke-width="1.55445"/>
<rect x="47.4108" y="0.777227" width="15.5445" height="15.5445" rx="3.88614" fill="#171B21" stroke="#1E2229" stroke-width="1.55445"/>
<rect x="24.0941" y="70.7277" width="15.5445" height="15.5445" rx="3.88614" fill="#171B21" stroke="#1E2229" stroke-width="1.55445"/>
<rect x="24.0941" y="94.0446" width="15.5445" height="15.5445" rx="3.88614" fill="#171B21" stroke="#1E2229" stroke-width="1.55445"/>
<rect x="24.0941" y="117.361" width="15.5445" height="15.5445" rx="3.88614" fill="#52A44E" stroke="#62BE5E" stroke-width="1.55445"/>
<rect x="24.0941" y="140.678" width="15.5445" height="15.5445" rx="3.88614" fill="#171B21" stroke="#1E2229" stroke-width="1.55445"/>
<rect x="23.3169" y="46.6337" width="17.099" height="17.099" rx="4.66336" fill="#52A44E" fill-opacity="0.3"/>
<rect x="24.0941" y="47.4109" width="15.5445" height="15.5445" rx="3.88614" stroke="#62BE5E" stroke-opacity="0.3" stroke-width="1.55445"/>
<rect x="24.0941" y="24.0941" width="15.5445" height="15.5445" rx="3.88614" fill="#171B21" stroke="#1E2229" stroke-width="1.55445"/>
<rect x="24.0941" y="0.777227" width="15.5445" height="15.5445" rx="3.88614" fill="#52A44E" stroke="#62BE5E" stroke-width="1.55445"/>
<rect x="0.777227" y="70.7277" width="15.5445" height="15.5445" rx="3.88614" fill="#52A44E" stroke="#62BE5E" stroke-width="1.55445"/>
<rect x="0.777227" y="94.0446" width="15.5445" height="15.5445" rx="3.88614" fill="#171B21" stroke="#1E2229" stroke-width="1.55445"/>
<rect x="0.777227" y="117.361" width="15.5445" height="15.5445" rx="3.88614" fill="#52A44E" stroke="#62BE5E" stroke-width="1.55445"/>
<rect x="0.777227" y="140.678" width="15.5445" height="15.5445" rx="3.88614" fill="#52A44E" stroke="#62BE5E" stroke-width="1.55445"/>
<rect x="0.777227" y="47.4109" width="15.5445" height="15.5445" rx="3.88614" fill="#171B21" stroke="#1E2229" stroke-width="1.55445"/>
<rect x="0.777227" y="24.0941" width="15.5445" height="15.5445" rx="3.88614" fill="#171B21" stroke="#1E2229" stroke-width="1.55445"/>
<rect x="0.777227" y="0.777227" width="15.5445" height="15.5445" rx="3.88614" fill="#52A44E" stroke="#62BE5E" stroke-width="1.55445"/>
<rect x="140.678" y="70.7277" width="15.5445" height="15.5445" rx="3.88614" fill="#52A44E" stroke="#62BE5E" stroke-width="1.55445"/>
<rect x="140.678" y="94.0446" width="15.5445" height="15.5445" rx="3.88614" fill="#52A44E" stroke="#62BE5E" stroke-width="1.55445"/>
<rect x="140.678" y="117.361" width="15.5445" height="15.5445" rx="3.88614" fill="#52A44E" stroke="#62BE5E" stroke-width="1.55445"/>
<rect x="140.678" y="140.678" width="15.5445" height="15.5445" rx="3.88614" fill="#52A44E" stroke="#62BE5E" stroke-width="1.55445"/>
<rect x="140.678" y="47.4109" width="15.5445" height="15.5445" rx="3.88614" fill="#52A44E" stroke="#62BE5E" stroke-width="1.55445"/>
<rect x="140.678" y="24.0941" width="15.5445" height="15.5445" rx="3.88614" fill="#171B21" stroke="#1E2229" stroke-width="1.55445"/>
<rect x="140.678" y="0.777227" width="15.5445" height="15.5445" rx="3.88614" fill="#52A44E" stroke="#62BE5E" stroke-width="1.55445"/>
<rect x="163.218" y="69.9504" width="17.099" height="17.099" rx="4.66336" fill="#52A44E" fill-opacity="0.6"/>
<rect x="163.995" y="70.7277" width="15.5445" height="15.5445" rx="3.88614" stroke="#62BE5E" stroke-opacity="0.3" stroke-width="1.55445"/>
<rect x="163.995" y="94.0446" width="15.5445" height="15.5445" rx="3.88614" fill="#171B21" stroke="#1E2229" stroke-width="1.55445"/>
<rect x="163.995" y="117.361" width="15.5445" height="15.5445" rx="3.88614" fill="#171B21" stroke="#1E2229" stroke-width="1.55445"/>
<rect x="163.995" y="140.678" width="15.5445" height="15.5445" rx="3.88614" fill="#52A44E" stroke="#62BE5E" stroke-width="1.55445"/>
<rect x="163.995" y="47.4109" width="15.5445" height="15.5445" rx="3.88614" fill="#171B21" stroke="#1E2229" stroke-width="1.55445"/>
<rect x="163.995" y="24.0941" width="15.5445" height="15.5445" rx="3.88614" fill="#171B21" stroke="#1E2229" stroke-width="1.55445"/>
<rect x="163.995" y="0.777227" width="15.5445" height="15.5445" rx="3.88614" fill="#52A44E" stroke="#62BE5E" stroke-width="1.55445"/>
<rect x="187.312" y="70.7277" width="15.5445" height="15.5445" rx="3.88614" fill="#171B21" stroke="#1E2229" stroke-width="1.55445"/>
<rect x="186.535" y="93.2673" width="17.099" height="17.099" rx="4.66336" fill="#52A44E" fill-opacity="0.3"/>
<rect x="187.312" y="94.0446" width="15.5445" height="15.5445" rx="3.88614" stroke="#62BE5E" stroke-opacity="0.3" stroke-width="1.55445"/>
<rect x="186.535" y="116.584" width="17.099" height="17.099" rx="4.66336" fill="#52A44E" fill-opacity="0.3"/>
<rect x="187.312" y="117.361" width="15.5445" height="15.5445" rx="3.88614" stroke="#62BE5E" stroke-opacity="0.3" stroke-width="1.55445"/>
<rect x="187.312" y="140.678" width="15.5445" height="15.5445" rx="3.88614" fill="#52A44E" stroke="#62BE5E" stroke-width="1.55445"/>
<rect x="186.535" y="46.6337" width="17.099" height="17.099" rx="4.66336" fill="#52A44E" fill-opacity="0.6"/>
<rect x="187.312" y="47.4109" width="15.5445" height="15.5445" rx="3.88614" stroke="#62BE5E" stroke-opacity="0.3" stroke-width="1.55445"/>
<rect x="187.312" y="24.0941" width="15.5445" height="15.5445" rx="3.88614" fill="#171B21" stroke="#1E2229" stroke-width="1.55445"/>
<rect x="187.312" y="0.777227" width="15.5445" height="15.5445" rx="3.88614" fill="#52A44E" stroke="#62BE5E" stroke-width="1.55445"/>
<rect x="210.629" y="70.7277" width="15.5445" height="15.5445" rx="3.88614" fill="#171B21" stroke="#1E2229" stroke-width="1.55445"/>
<rect x="210.629" y="94.0446" width="15.5445" height="15.5445" rx="3.88614" fill="#171B21" stroke="#1E2229" stroke-width="1.55445"/>
<rect x="210.629" y="117.361" width="15.5445" height="15.5445" rx="3.88614" fill="#52A44E" stroke="#62BE5E" stroke-width="1.55445"/>
<rect x="210.629" y="140.678" width="15.5445" height="15.5445" rx="3.88614" fill="#52A44E" stroke="#62BE5E" stroke-width="1.55445"/>
<rect x="210.629" y="47.4109" width="15.5445" height="15.5445" rx="3.88614" fill="#171B21" stroke="#1E2229" stroke-width="1.55445"/>
<rect x="210.629" y="24.0941" width="15.5445" height="15.5445" rx="3.88614" fill="#171B21" stroke="#1E2229" stroke-width="1.55445"/>
<rect x="210.629" y="0.777227" width="15.5445" height="15.5445" rx="3.88614" fill="#52A44E" stroke="#62BE5E" stroke-width="1.55445"/>
<rect x="233.945" y="70.7277" width="15.5445" height="15.5445" rx="3.88614" fill="#171B21" stroke="#1E2229" stroke-width="1.55445"/>
<rect x="233.945" y="94.0446" width="15.5445" height="15.5445" rx="3.88614" fill="#52A44E" stroke="#62BE5E" stroke-width="1.55445"/>
<rect x="233.945" y="117.361" width="15.5445" height="15.5445" rx="3.88614" fill="#171B21" stroke="#1E2229" stroke-width="1.55445"/>
<rect x="233.945" y="140.678" width="15.5445" height="15.5445" rx="3.88614" fill="#171B21" stroke="#1E2229" stroke-width="1.55445"/>
<rect x="233.945" y="47.4109" width="15.5445" height="15.5445" rx="3.88614" fill="#171B21" stroke="#1E2229" stroke-width="1.55445"/>
<rect x="233.945" y="24.0941" width="15.5445" height="15.5445" rx="3.88614" fill="#171B21" stroke="#1E2229" stroke-width="1.55445"/>
<rect x="233.945" y="0.777227" width="15.5445" height="15.5445" rx="3.88614" fill="#52A44E" stroke="#62BE5E" stroke-width="1.55445"/>
</g>
<defs>
<linearGradient id="paint0_linear_85_76" x1="128" y1="-21" x2="128" y2="114" gradientUnits="userSpaceOnUse">
<stop stop-color="#D9D9D9"/>
<stop offset="1" stop-color="#D9D9D9" stop-opacity="0"/>
</linearGradient>
</defs>
</svg>
