<svg width="195" height="201" viewBox="0 0 195 201" fill="none" xmlns="http://www.w3.org/2000/svg">
<g clip-path="url(#clip0_85_164)">
<mask id="mask0_85_164" style="mask-type:alpha" maskUnits="userSpaceOnUse" x="0" y="0" width="194" height="201">
<rect width="194" height="201" fill="url(#paint0_linear_85_164)"/>
</mask>
<g mask="url(#mask0_85_164)">
<path d="M97.125 26C43.5104 26 0 69.5104 0 123.125C0 176.74 43.5104 220.25 97.125 220.25C150.74 220.25 194.25 176.74 194.25 123.125C194.25 69.5104 150.74 26 97.125 26Z" fill="#1ED760"/>
<path d="M159.238 113.373C157.201 113.373 155.948 112.864 154.186 111.846C126.302 95.2015 76.4467 91.2068 44.1761 100.214C42.7663 100.606 41.0039 101.233 39.1241 101.233C33.9545 101.233 29.999 97.1988 29.999 91.9901C29.999 86.6639 33.2887 83.6483 36.8134 82.6301C50.5989 78.5963 66.0293 76.6772 82.8303 76.6772C111.42 76.6772 141.379 82.6301 163.272 95.3973C166.326 97.1597 168.324 99.5878 168.324 104.248C168.324 109.574 164.016 113.373 159.238 113.373ZM147.097 143.216C145.061 143.216 143.69 142.315 142.28 141.571C117.803 127.08 81.303 121.245 48.8366 130.057C46.9567 130.566 45.9385 131.075 44.1761 131.075C39.9857 131.075 36.5785 127.668 36.5785 123.477C36.5785 119.287 38.615 116.506 42.6488 115.371C53.5362 112.316 64.6586 110.044 80.9505 110.044C106.367 110.044 130.923 116.35 150.27 127.864C153.442 129.744 154.695 132.172 154.695 135.579C154.656 139.808 151.366 143.216 147.097 143.216ZM136.562 168.907C134.918 168.907 133.899 168.398 132.372 167.497C107.934 152.772 79.5014 152.145 51.4214 157.902C49.894 158.294 47.8967 158.92 46.7609 158.92C42.9621 158.92 40.5731 155.905 40.5731 152.732C40.5731 148.699 42.9621 146.78 45.8993 146.153C77.9741 139.064 110.754 139.691 138.716 156.414C141.105 157.941 142.515 159.312 142.515 162.876C142.515 166.44 139.735 168.907 136.562 168.907Z" fill="black"/>
</g>
</g>
<defs>
<linearGradient id="paint0_linear_85_164" x1="97" y1="-122.5" x2="97" y2="140.5" gradientUnits="userSpaceOnUse">
<stop stop-color="#D9D9D9"/>
<stop offset="1" stop-color="#D9D9D9" stop-opacity="0"/>
</linearGradient>
<clipPath id="clip0_85_164">
<rect width="194.25" height="200.516" fill="white"/>
</clipPath>
</defs>
</svg>
