<svg width="24" height="24" viewBox="0 0 24 24" fill="none" xmlns="http://www.w3.org/2000/svg">
<path d="M16.67 2.25C13.7028 2.25 11.2721 4.61002 11.2721 7.55422C11.2721 7.62338 11.2736 7.69247 11.2765 7.7615C8.00933 7.34208 5.10973 5.69957 3.12286 3.3409C2.96758 3.15657 2.73317 3.05809 2.49283 3.07622C2.25249 3.09435 2.0355 3.22689 1.90964 3.43244C0.927325 5.03663 0.97661 7.00898 1.82029 8.58535C1.43996 8.61839 1.13527 8.94804 1.13527 9.33253C1.13527 10.9216 1.85111 12.3874 3.0105 13.3826C2.80402 13.576 2.72155 13.8826 2.80793 14.156C3.28246 15.6582 4.41848 16.8469 5.86661 17.4381C4.39256 18.1382 2.73495 18.4183 1.09113 18.217C0.743529 18.1744 0.412731 18.3781 0.294211 18.7076C0.175692 19.0372 0.301004 19.4049 0.596099 19.5934C2.75445 20.9727 5.32949 21.75 8.12671 21.75C17.1536 21.75 22.1077 14.4448 22.1077 8.0747V7.59031L22.1269 7.57245C22.3186 7.39301 22.5637 7.12628 22.8053 6.7591C23.2931 6.01801 23.75 4.89264 23.75 3.30361C23.75 3.03461 23.6059 2.78621 23.3724 2.65262C23.1389 2.51904 22.8517 2.52074 22.6198 2.65707C21.9156 3.07112 21.1148 3.39793 20.301 3.60844C19.3141 2.73976 18.0501 2.25 16.67 2.25Z" fill="#9898A7"/>
</svg>
