<svg width="24" height="24" viewBox="0 0 24 24" fill="none" xmlns="http://www.w3.org/2000/svg">
<g clip-path="url(#clip0_77_283)">
<path d="M6.55196 11.2501C6.22572 11.2501 6.0626 11.2501 5.91568 11.2037C5.78564 11.1626 5.66538 11.0954 5.56227 11.0062C5.44577 10.9054 5.36028 10.7665 5.1893 10.4886L4.33542 9.10105C2.1403 5.53399 1.04274 3.75046 1.26983 2.75447C1.46586 1.89475 2.10028 1.20189 2.93944 0.93106C3.91161 0.617305 5.78471 1.55385 9.5309 3.42695L19.5217 8.42234C21.8247 9.57386 22.9762 10.1496 23.3458 10.9287C23.6673 11.6067 23.6673 12.3933 23.3458 13.0714C22.9762 13.8505 21.8247 14.4262 19.5217 15.5778L9.5309 20.5731C5.78471 22.4462 3.91161 23.3828 2.93944 23.069C2.10028 22.7982 1.46586 22.1053 1.26984 21.2456C1.04274 20.2496 2.1403 18.4661 4.33542 14.899L5.18929 13.5115C5.36027 13.2337 5.44576 13.0947 5.56226 12.9939C5.66536 12.9047 5.78563 12.8375 5.91567 12.7964C6.06259 12.7501 6.22571 12.7501 6.55194 12.7501L11.25 12.7501C11.6642 12.7501 12 12.4143 12 12.0001V12.0001C12 11.5858 11.6642 11.2501 11.25 11.2501L6.55196 11.2501Z" fill="#2F384C"/>
<path d="M6.55196 11.2501C6.22572 11.2501 6.0626 11.2501 5.91568 11.2037C5.78564 11.1626 5.66538 11.0954 5.56227 11.0062C5.44577 10.9054 5.36028 10.7665 5.1893 10.4886L4.33542 9.10105C2.1403 5.53399 1.04274 3.75046 1.26983 2.75447C1.46586 1.89475 2.10028 1.20189 2.93944 0.93106C3.91161 0.617305 5.78471 1.55385 9.5309 3.42695L19.5217 8.42234C21.8247 9.57386 22.9762 10.1496 23.3458 10.9287C23.6673 11.6067 23.6673 12.3933 23.3458 13.0714C22.9762 13.8505 21.8247 14.4262 19.5217 15.5778L9.5309 20.5731C5.78471 22.4462 3.91161 23.3828 2.93944 23.069C2.10028 22.7982 1.46586 22.1053 1.26984 21.2456C1.04274 20.2496 2.1403 18.4661 4.33542 14.899L5.18929 13.5115C5.36027 13.2337 5.44576 13.0947 5.56226 12.9939C5.66536 12.9047 5.78563 12.8375 5.91567 12.7964C6.06259 12.7501 6.22571 12.7501 6.55194 12.7501L11.25 12.7501C11.6642 12.7501 12 12.4143 12 12.0001V12.0001C12 11.5858 11.6642 11.2501 11.25 11.2501L6.55196 11.2501Z" fill="url(#paint0_linear_77_283)"/>
</g>
<defs>
<linearGradient id="paint0_linear_77_283" x1="11.8299" y1="-2.84717" x2="11.8299" y2="26.8473" gradientUnits="userSpaceOnUse">
<stop stop-color="#7265A9"/>
<stop offset="1" stop-color="#6B54CC" stop-opacity="0.6"/>
</linearGradient>
<clipPath id="clip0_77_283">
<rect width="24" height="24" fill="white"/>
</clipPath>
</defs>
</svg>
