<svg width="24" height="12" viewBox="0 0 24 12" fill="none" xmlns="http://www.w3.org/2000/svg">
<path fill-rule="evenodd" clip-rule="evenodd" d="M23.2696 2.72891C23.6728 2.32537 23.6763 1.66075 23.2017 1.34422C21.1728 -0.00881755 18.3863 0.169102 16.6053 1.95142L9.17115 9.35845C8.74789 9.78016 8.76773 10.4815 9.28456 10.7813C11.4512 12.0381 14.2598 11.7455 16.0943 9.90964L23.2696 2.72891ZM8.1427 1.98875C9.92702 0.20307 12.7316 0.0335221 14.7642 1.39636C15.2373 1.71361 15.2332 2.37703 14.8305 2.77999L8.67312 8.94208C8.27004 9.34547 7.61619 9.34547 7.2131 8.94208L4.93277 6.66002C4.53012 6.25706 4.53012 5.60406 4.93277 5.2011L8.1427 1.98875ZM4.45746 4.73863C4.05509 5.13747 3.40642 5.13736 3.00419 4.73838L0.783767 2.53595C0.359707 2.11533 0.378278 1.41274 0.90181 1.12523C2.6002 0.192509 4.73547 0.297655 6.37115 1.39247C6.84615 1.7104 6.84053 2.37646 6.43458 2.77884L4.45746 4.73863Z" fill="#FE6D50"/>
</svg>
